<svg xmlns="http://www.w3.org/2000/svg" xmlns:xlink="http://www.w3.org/1999/xlink" width="500" zoomAndPan="magnify" viewBox="0 0 375 374.999991" height="500" preserveAspectRatio="xMidYMid meet" version="1.0"><defs><clipPath id="1cccfd6d2c"><path d="M 112.5 152 L 155 152 L 155 224 L 112.5 224 Z M 112.5 152 " clip-rule="nonzero"/></clipPath><clipPath id="d13614fd25"><path d="M 220 152 L 262.5 152 L 262.5 224 L 220 224 Z M 220 152 " clip-rule="nonzero"/></clipPath><clipPath id="929c8671e8"><path d="M 162 126 L 218 126 L 218 249.9375 L 162 249.9375 Z M 162 126 " clip-rule="nonzero"/></clipPath></defs><g clip-path="url(#1cccfd6d2c)"><path fill="#231f20" d="M 150.351562 223.886719 C 149.191406 223.886719 148.03125 223.441406 147.144531 222.554688 L 112.6875 187.992188 L 147.144531 153.433594 C 148.914062 151.65625 151.785156 151.65625 153.554688 153.433594 C 155.324219 155.207031 155.324219 158.082031 153.554688 159.859375 L 125.503906 187.992188 L 153.554688 216.128906 C 155.324219 217.902344 155.324219 220.777344 153.554688 222.554688 C 152.667969 223.441406 151.511719 223.886719 150.351562 223.886719 " fill-opacity="1" fill-rule="nonzero"/></g><g clip-path="url(#d13614fd25)"><path fill="#231f20" d="M 224.667969 223.886719 C 223.511719 223.886719 222.351562 223.441406 221.464844 222.554688 C 219.695312 220.777344 219.695312 217.902344 221.464844 216.128906 L 249.515625 187.992188 L 221.464844 159.859375 C 219.695312 158.082031 219.695312 155.207031 221.464844 153.433594 C 223.234375 151.65625 226.105469 151.65625 227.875 153.433594 L 262.332031 187.992188 L 227.875 222.554688 C 226.988281 223.441406 225.828125 223.886719 224.667969 223.886719 " fill-opacity="1" fill-rule="nonzero"/></g><g clip-path="url(#929c8671e8)"><path fill="#231f20" d="M 167.179688 249.945312 C 166.617188 249.945312 166.046875 249.839844 165.492188 249.617188 C 163.167969 248.683594 162.042969 246.035156 162.976562 243.703125 L 208.988281 128.890625 C 209.921875 126.5625 212.5625 125.433594 214.882812 126.367188 C 217.207031 127.304688 218.332031 129.953125 217.398438 132.28125 L 171.386719 247.09375 C 170.675781 248.871094 168.976562 249.945312 167.179688 249.945312 " fill-opacity="1" fill-rule="nonzero"/></g></svg>