<svg xmlns="http://www.w3.org/2000/svg" xmlns:xlink="http://www.w3.org/1999/xlink" width="500" zoomAndPan="magnify" viewBox="0 0 375 374.999991" height="500" preserveAspectRatio="xMidYMid meet" version="1.0"><defs><clipPath id="c84ca8a468"><path d="M 117 118 L 261.09375 118 L 261.09375 262 L 117 262 Z M 117 118 " clip-rule="nonzero"/></clipPath></defs><g clip-path="url(#c84ca8a468)"><path fill="#000000" d="M 189.15625 261.6875 C 149.492188 261.6875 117.222656 229.457031 117.222656 189.84375 C 117.222656 150.226562 149.492188 118 189.15625 118 C 228.824219 118 261.09375 150.226562 261.09375 189.84375 C 261.09375 229.457031 228.824219 261.6875 189.15625 261.6875 Z M 189.15625 124.246094 C 152.9375 124.246094 123.476562 153.671875 123.476562 189.84375 C 123.476562 226.015625 152.9375 255.441406 189.15625 255.441406 C 225.375 255.441406 254.839844 226.015625 254.839844 189.84375 C 254.839844 153.671875 225.375 124.246094 189.15625 124.246094 Z M 189.15625 124.246094 " fill-opacity="1" fill-rule="nonzero"/></g><path fill="#000000" d="M 217.304688 192.964844 L 161.007812 192.964844 C 159.28125 192.964844 157.882812 191.566406 157.882812 189.84375 C 157.882812 188.117188 159.28125 186.71875 161.007812 186.71875 L 217.304688 186.71875 C 219.027344 186.71875 220.433594 188.117188 220.433594 189.84375 C 220.433594 191.566406 219.027344 192.964844 217.304688 192.964844 Z M 217.304688 192.964844 " fill-opacity="1" fill-rule="nonzero"/><path fill="#000000" d="M 189.15625 221.078125 C 187.429688 221.078125 186.03125 219.671875 186.03125 217.957031 L 186.03125 161.730469 C 186.03125 160.003906 187.429688 158.605469 189.15625 158.605469 C 190.882812 158.605469 192.285156 160.003906 192.285156 161.730469 L 192.285156 217.957031 C 192.285156 219.671875 190.882812 221.078125 189.15625 221.078125 Z M 189.15625 221.078125 " fill-opacity="1" fill-rule="nonzero"/></svg>