<svg xmlns="http://www.w3.org/2000/svg" xmlns:xlink="http://www.w3.org/1999/xlink" width="500" zoomAndPan="magnify" viewBox="0 0 375 374.999991" height="500" preserveAspectRatio="xMidYMid meet" version="1.0"><defs><clipPath id="88c30923bc"><path d="M 114 114 L 261.65625 114 L 261.65625 262.5 L 114 262.5 Z M 114 114 " clip-rule="nonzero"/></clipPath></defs><path fill="#000000" d="M 136.234375 225.039062 C 129.03125 225.039062 123.171875 230.90625 123.171875 238.117188 C 123.171875 245.328125 129.03125 251.195312 136.234375 251.195312 C 143.4375 251.195312 149.296875 245.328125 149.296875 238.117188 C 149.296875 230.90625 143.4375 225.039062 136.234375 225.039062 Z M 136.234375 247.9375 C 130.824219 247.9375 126.425781 243.53125 126.425781 238.117188 C 126.425781 232.699219 130.824219 228.296875 136.234375 228.296875 C 141.640625 228.296875 146.042969 232.699219 146.042969 238.117188 C 146.042969 243.53125 141.640625 247.9375 136.234375 247.9375 Z M 136.234375 247.9375 " fill-opacity="1" fill-rule="nonzero"/><g clip-path="url(#88c30923bc)"><path fill="#000000" d="M 255.816406 228.332031 L 212.574219 185.03125 L 228.425781 167.5 C 229.945312 167.761719 231.464844 167.898438 232.976562 167.898438 C 239.945312 167.898438 246.6875 165.152344 251.730469 160.105469 C 259.296875 152.527344 261.589844 141.21875 257.574219 131.289062 C 257.53125 131.1875 257.480469 131.089844 257.417969 130.996094 C 257.296875 130.8125 257.144531 130.660156 256.964844 130.539062 C 256.921875 130.511719 256.875 130.492188 256.832031 130.46875 C 256.78125 130.441406 256.738281 130.414062 256.6875 130.394531 C 256.636719 130.371094 256.582031 130.359375 256.53125 130.34375 C 256.480469 130.328125 256.4375 130.308594 256.386719 130.300781 C 256.335938 130.289062 256.285156 130.289062 256.238281 130.285156 C 256.183594 130.277344 256.128906 130.269531 256.074219 130.269531 C 256.019531 130.265625 255.964844 130.277344 255.914062 130.28125 C 255.863281 130.285156 255.8125 130.285156 255.761719 130.296875 C 255.550781 130.335938 255.347656 130.414062 255.164062 130.539062 C 255.070312 130.597656 254.988281 130.667969 254.910156 130.746094 L 236.054688 149.625 L 224.609375 138.167969 L 243.464844 119.289062 C 243.542969 119.210938 243.613281 119.125 243.675781 119.03125 C 243.796875 118.847656 243.875 118.644531 243.917969 118.4375 C 243.925781 118.386719 243.925781 118.339844 243.929688 118.292969 C 243.933594 118.238281 243.945312 118.179688 243.945312 118.121094 C 243.945312 118.070312 243.933594 118.019531 243.929688 117.964844 C 243.921875 117.914062 243.921875 117.859375 243.910156 117.808594 C 243.902344 117.761719 243.886719 117.71875 243.871094 117.671875 C 243.855469 117.617188 243.839844 117.558594 243.820312 117.507812 C 243.800781 117.460938 243.773438 117.417969 243.75 117.375 C 243.722656 117.324219 243.703125 117.277344 243.671875 117.230469 C 243.554688 117.050781 243.402344 116.898438 243.21875 116.773438 C 243.125 116.714844 243.027344 116.664062 242.929688 116.621094 C 233.007812 112.601562 221.714844 114.894531 214.148438 122.472656 C 208.007812 128.617188 205.28125 137.28125 206.753906 145.816406 L 179.726562 170.3125 L 143.8125 134.355469 L 139.289062 122.585938 C 139.136719 122.191406 138.835938 121.871094 138.453125 121.695312 L 124.609375 115.265625 C 123.988281 114.976562 123.253906 115.105469 122.773438 115.589844 L 114.996094 123.375 C 114.515625 123.859375 114.382812 124.59375 114.671875 125.214844 L 121.09375 139.078125 C 121.269531 139.464844 121.589844 139.761719 121.984375 139.914062 L 133.738281 144.445312 L 169.148438 179.898438 L 121.40625 223.15625 C 121.394531 223.167969 121.386719 223.179688 121.375 223.191406 C 121.367188 223.199219 121.359375 223.203125 121.347656 223.210938 C 113.144531 231.429688 113.144531 244.800781 121.351562 253.019531 C 125.453125 257.128906 130.84375 259.179688 136.234375 259.179688 C 141.625 259.179688 147.011719 257.128906 151.117188 253.019531 C 151.125 253.011719 151.132812 253 151.140625 252.992188 C 151.152344 252.980469 151.164062 252.972656 151.175781 252.960938 L 185.757812 214.699219 L 227.59375 256.589844 C 231.363281 260.363281 236.371094 262.441406 241.699219 262.441406 C 247.03125 262.441406 252.042969 260.359375 255.8125 256.585938 C 259.582031 252.8125 261.65625 247.796875 261.660156 242.460938 C 261.660156 237.121094 259.585938 232.105469 255.816406 228.332031 Z M 209.613281 147.617188 C 209.628906 147.601562 209.640625 147.585938 209.65625 147.570312 C 209.6875 147.539062 209.71875 147.503906 209.75 147.46875 C 209.789062 147.421875 209.828125 147.375 209.863281 147.324219 C 209.886719 147.289062 209.90625 147.253906 209.925781 147.21875 C 209.957031 147.164062 209.992188 147.109375 210.015625 147.050781 C 210.03125 147.011719 210.042969 146.96875 210.058594 146.929688 C 210.078125 146.871094 210.097656 146.816406 210.109375 146.753906 C 210.121094 146.710938 210.125 146.664062 210.128906 146.617188 C 210.136719 146.558594 210.144531 146.5 210.144531 146.441406 C 210.148438 146.398438 210.144531 146.351562 210.140625 146.304688 C 210.136719 146.242188 210.132812 146.183594 210.121094 146.121094 C 210.117188 146.105469 210.117188 146.089844 210.117188 146.074219 C 208.496094 138.328125 210.863281 130.363281 216.449219 124.773438 C 222.488281 118.726562 231.242188 116.511719 239.328125 118.824219 L 221.160156 137.015625 C 220.523438 137.648438 220.523438 138.679688 221.160156 139.316406 L 234.902344 153.082031 C 235.207031 153.386719 235.621094 153.558594 236.054688 153.558594 C 236.484375 153.558594 236.898438 153.386719 237.203125 153.082031 L 255.371094 134.890625 C 257.679688 142.984375 255.472656 151.75 249.429688 157.800781 C 243.847656 163.390625 235.894531 165.757812 228.15625 164.140625 C 228.140625 164.136719 228.125 164.136719 228.105469 164.132812 C 228.054688 164.125 228 164.121094 227.949219 164.117188 C 227.890625 164.113281 227.835938 164.109375 227.78125 164.109375 C 227.738281 164.109375 227.695312 164.117188 227.652344 164.121094 C 227.589844 164.128906 227.527344 164.136719 227.464844 164.148438 C 227.425781 164.15625 227.390625 164.171875 227.355469 164.183594 C 227.292969 164.203125 227.226562 164.222656 227.167969 164.246094 C 227.132812 164.261719 227.101562 164.28125 227.066406 164.300781 C 227.007812 164.332031 226.949219 164.363281 226.890625 164.40625 C 226.863281 164.425781 226.839844 164.449219 226.8125 164.46875 C 226.753906 164.515625 226.699219 164.566406 226.644531 164.617188 C 226.636719 164.628906 226.628906 164.632812 226.621094 164.640625 L 210.269531 182.726562 L 207.074219 179.523438 C 206.765625 179.21875 206.355469 179.046875 205.921875 179.046875 C 205.492188 179.046875 205.078125 179.21875 204.773438 179.523438 L 196.847656 187.457031 L 182.027344 172.621094 Z M 135.792969 141.894531 C 135.789062 141.886719 135.78125 141.886719 135.777344 141.878906 C 135.75 141.855469 135.71875 141.835938 135.691406 141.8125 C 135.636719 141.765625 135.582031 141.714844 135.519531 141.675781 C 135.515625 141.675781 135.511719 141.671875 135.511719 141.671875 C 135.421875 141.613281 135.324219 141.566406 135.226562 141.527344 L 123.769531 137.109375 L 118.101562 124.875 L 124.269531 118.699219 L 136.488281 124.371094 L 140.894531 135.832031 C 140.964844 136.027344 141.078125 136.207031 141.226562 136.367188 C 141.234375 136.375 141.238281 136.382812 141.246094 136.390625 C 141.253906 136.398438 141.257812 136.40625 141.261719 136.410156 L 194.546875 189.761719 L 189.074219 195.242188 Z M 148.804688 250.726562 C 141.867188 257.660156 130.585938 257.65625 123.652344 250.714844 C 116.714844 243.773438 116.714844 232.476562 123.640625 225.527344 L 171.453125 182.203125 L 186.773438 197.542969 L 178.847656 205.480469 C 178.214844 206.113281 178.214844 207.144531 178.847656 207.78125 L 183.453125 212.390625 Z M 253.511719 254.28125 C 250.355469 257.441406 246.164062 259.183594 241.699219 259.183594 C 237.242188 259.183594 233.046875 257.441406 229.894531 254.285156 L 186.792969 211.128906 C 186.792969 211.128906 186.792969 211.128906 186.789062 211.125 L 182.300781 206.632812 L 205.921875 182.980469 L 253.515625 230.636719 C 256.667969 233.792969 258.40625 237.992188 258.40625 242.457031 C 258.402344 246.925781 256.667969 251.125 253.511719 254.28125 Z M 253.511719 254.28125 " fill-opacity="1" fill-rule="nonzero"/></g><path fill="#000000" d="M 198.675781 204.855469 C 198.039062 204.21875 197.007812 204.21875 196.375 204.855469 C 195.738281 205.488281 195.738281 206.523438 196.375 207.15625 L 237.480469 248.320312 C 237.800781 248.636719 238.214844 248.796875 238.632812 248.796875 C 239.046875 248.796875 239.464844 248.636719 239.78125 248.320312 C 240.417969 247.683594 240.417969 246.652344 239.78125 246.015625 Z M 198.675781 204.855469 " fill-opacity="1" fill-rule="nonzero"/><path fill="#000000" d="M 206.449219 197.070312 C 205.8125 196.433594 204.78125 196.433594 204.148438 197.070312 C 203.511719 197.707031 203.511719 198.738281 204.148438 199.375 L 245.257812 240.535156 C 245.574219 240.855469 245.992188 241.015625 246.410156 241.015625 C 246.824219 241.015625 247.242188 240.855469 247.558594 240.535156 C 248.195312 239.902344 248.195312 238.871094 247.558594 238.234375 Z M 206.449219 197.070312 " fill-opacity="1" fill-rule="nonzero"/></svg>